<svg id="Capa_1" enable-background="new 0 0 512 512" height="100" viewBox="100 0 512 512" width="50" xmlns="http://www.w3.org/2000/svg"><g><g><g fill="#c17d4f"><path d=""/><path d="m166.317 270.167 75.332 231.413c4.523 13.894 24.178 13.894 28.701 0l75.332-231.413.317-9h-179.999z"/></g><path d="m341.681 246.197h-171.362s-6.08 6.736-9.252 7.845c0 0 5.249 16.125 5.249 16.125.122-.072.244-.145.366-.219 1.841-1.118 4.172-1.015 5.869.312 6.355 4.97 14.351 7.937 23.045 7.937 9.502 0 18.175-3.54 24.779-9.371 2.162-1.909 5.441-1.671 7.331.508 6.867 7.914 16.993 12.922 28.294 12.922s21.427-5.008 28.294-12.922c1.89-2.178 5.169-2.417 7.331-.508 6.604 5.831 15.277 9.371 24.779 9.371 8.693 0 16.689-2.967 23.045-7.937 1.697-1.327 4.027-1.43 5.868-.312.121.074.243.147.366.219l5.249-16.125z" fill="#b16e3d"/><path d="m123.374 216.917c0 16.21 14.944 29.194 27.98 29.194 5.617 0 10.863-1.574 15.329-4.301 1.844-1.126 4.181-1.029 5.884.301 6.353 4.962 14.343 7.924 23.029 7.924 9.502 0 18.175-3.54 24.779-9.371 2.162-1.909 5.441-1.671 7.331.508 6.867 7.914 16.993 12.922 28.294 12.922s21.427-5.008 28.294-12.922c1.89-2.178 5.169-2.417 7.331-.508 6.603 5.831 15.276 9.371 24.779 9.371 8.686 0 16.676-2.962 23.029-7.924 1.703-1.33 4.04-1.427 5.884-.301 4.466 2.727 9.713 4.301 15.329 4.301 13.036 0 27.98-12.426 27.98-29.194-1.197-3.6-3.066-6.893-5.462-9.727l-4.663-9.342 12.674-9.719c4.816-14.296 7.43-29.604 7.43-45.525-.001-78.758-63.847-142.604-142.605-142.604s-142.604 63.846-142.604 142.604c0 15.611 2.513 30.633 7.151 44.689l12.659 9.851-4.369 10.046c-2.397 2.834-4.266 6.127-5.463 9.727z" fill="#ffc1ed"/><path d="m189.884 205.76c0 4.273-3.458 7.742-7.742 7.742-23.68 0-41.961-3.695-53.677-7.05-3.086-6.152-5.739-12.542-7.917-19.159 1.29.578 6.906 2.963 16.248 5.337 10.612 2.704 26.034 5.389 45.347 5.389 4.283-.001 7.741 3.457 7.741 7.741z" fill="#ff99ec"/><path d="m391.174 188.129c-9.022 3.19-31.546 9.889-61.316 9.889-4.284 0-7.742 3.458-7.742 7.742 0 4.274 3.458 7.742 7.742 7.742 22.421 0 40.919-3.458 53.543-6.782z" fill="#ff99ec"/><g><path d="m360.646 237.111c-5.616 0-10.863-1.574-15.329-4.301-1.844-1.126-4.181-1.029-5.884.301-6.353 4.963-14.343 7.924-23.029 7.924-9.502 0-18.175-3.54-24.779-9.371-2.162-1.909-5.441-1.671-7.331.508-6.867 7.914-16.993 12.922-28.294 12.922s-21.427-5.008-28.294-12.922c-1.89-2.178-5.169-2.417-7.331-.508-6.604 5.831-15.277 9.371-24.779 9.371-8.686 0-16.676-2.962-23.029-7.924-1.703-1.33-4.04-1.427-5.884-.301-4.466 2.727-9.713 4.301-15.329 4.301-13.036 0-24.088-8.464-27.98-20.194-1.267 3.809-1.783 7.961-1.352 12.287 1.397 14.033 12.836 25.257 26.893 26.389 7.897.636 15.199-1.849 20.825-6.345 6.725 6.419 15.826 10.368 25.856 10.368 11.536 0 21.851-5.218 28.723-13.419 6.638 10.499 18.341 17.477 31.681 17.477s25.043-6.978 31.681-17.477c6.872 8.201 17.187 13.419 28.723 13.419 10.03 0 19.132-3.949 25.856-10.368 5.627 4.496 12.93 6.982 20.828 6.345 14.056-1.134 25.494-12.358 26.89-26.391.43-4.325-.086-8.476-1.352-12.285-3.892 11.73-14.944 20.194-27.98 20.194z" fill="#ffa8ea"/></g></g></g></svg>